<svg width="50" height="50" viewBox="0 0 50 50" fill="none" xmlns="http://www.w3.org/2000/svg">
<path d="M28.5 11C24.2089 11 20.479 13.2198 18.2305 16.5215C17.5149 16.2719 16.802 16 16 16C12.6636 16 9.94415 18.3865 9.25195 21.5234C5.6452 22.6976 3 26.012 3 30C3 34.9585 7.04148 39 12 39H39C43.4064 39 47 35.4064 47 31C47 27.2953 44.4188 24.2766 40.9883 23.375C40.9193 16.5423 35.3487 11 28.5 11ZM28.5 13C34.3105 13 39 17.6895 39 23.5C39 23.6253 38.9835 23.7968 38.9727 24.0273C38.9606 24.2768 39.0422 24.5218 39.2016 24.7141C39.361 24.9064 39.5866 25.032 39.834 25.0664C42.7539 25.4729 45 27.9587 45 31C45 34.3256 42.3256 37 39 37H12C8.12252 37 5 33.8775 5 30C5 26.7137 7.25574 23.9805 10.2949 23.2188C10.4906 23.1699 10.667 23.063 10.8009 22.912C10.9347 22.7611 11.0198 22.5732 11.0449 22.373C11.3534 19.9066 13.4403 18 16 18C16.7874 18 17.5257 18.1865 18.1934 18.5137C18.4186 18.6242 18.6772 18.6459 18.9178 18.5747C19.1584 18.5034 19.3634 18.3443 19.4922 18.1289C21.3267 15.0601 24.6603 13 28.5 13Z" fill="black"/>
</svg>
